<?xml version="1.0" encoding="UTF-8" standalone="no"?>
<svg
   version="1.0"
   width="72.824997pt"
   height="83.80159pt"
   viewBox="0 0 72.824997 83.801589"
   preserveAspectRatio="xMidYMid"
   id="svg35"
   xml:space="preserve"
   xmlns="http://www.w3.org/2000/svg"
   xmlns:svg="http://www.w3.org/2000/svg"><defs
     id="defs35" /><g
     transform="matrix(0.1,0,0,-0.1,-528,673.80159)"
     fill="#000000"
     stroke="none"
     id="g35"><path
       d="m 5582,6704 c -61,-48 -138,-68 -229,-60 l -73,6 v -190 c 0,-208 10,-257 71,-346 41,-60 137,-145 206,-181 l 61,-33 4,28 c 6,45 -1,56 -49,82 -71,37 -146,112 -184,182 -34,63 -34,63 -37,219 l -4,156 79,5 c 77,5 142,28 186,66 16,15 23,13 89,-23 62,-33 83,-39 150,-43 l 78,-5 v -152 c 0,-149 -1,-153 -30,-212 -36,-72 -113,-152 -187,-194 -50,-29 -53,-33 -53,-70 0,-21 4,-39 8,-39 4,0 44,22 89,50 97,60 165,132 207,220 27,57 31,80 38,199 5,74 7,166 6,205 l -3,71 h -100 c -91,0 -105,3 -157,29 -32,16 -65,37 -74,48 -24,25 -42,22 -92,-18 z"
       id="path1"
       style="fill:#682873;fill-opacity:1" /><path
       d="m 5613,6483 c -20,-4 -23,-11 -23,-54 v -49 h -45 -45 v -55 -55 h 44 44 l 7,-42 c 8,-46 18,-58 52,-58 31,0 53,26 53,66 0,34 0,34 45,34 h 45 v 55 55 h -45 -45 v 43 c 0,62 -17,74 -87,60 z"
       id="path4"
       style="fill:#682873;fill-opacity:1" /></g></svg>
