<?xml version="1.0" encoding="UTF-8" standalone="no"?>
<svg
   version="1.0"
   width="776.94116pt"
   height="321.80157pt"
   viewBox="0 0 776.94116 321.80157"
   preserveAspectRatio="xMidYMid"
   id="svg35"
   xml:space="preserve"
   xmlns="http://www.w3.org/2000/svg"
   xmlns:svg="http://www.w3.org/2000/svg"><defs
     id="defs35" /><g
     transform="matrix(0.1,0,0,-0.1,-126,673.80159)"
     fill="#000000"
     stroke="none"
     id="g35"><path
       d="m 5582,6704 c -61,-48 -138,-68 -229,-60 l -73,6 v -190 c 0,-208 10,-257 71,-346 41,-60 137,-145 206,-181 l 61,-33 4,28 c 6,45 -1,56 -49,82 -71,37 -146,112 -184,182 -34,63 -34,63 -37,219 l -4,156 79,5 c 77,5 142,28 186,66 16,15 23,13 89,-23 62,-33 83,-39 150,-43 l 78,-5 v -152 c 0,-149 -1,-153 -30,-212 -36,-72 -113,-152 -187,-194 -50,-29 -53,-33 -53,-70 0,-21 4,-39 8,-39 4,0 44,22 89,50 97,60 165,132 207,220 27,57 31,80 38,199 5,74 7,166 6,205 l -3,71 h -100 c -91,0 -105,3 -157,29 -32,16 -65,37 -74,48 -24,25 -42,22 -92,-18 z"
       id="path1"
       style="fill:#682873;fill-opacity:1" /><path
       d="m 8690,6691 c -86,-26 -147,-78 -180,-153 -47,-106 -32,-208 41,-292 51,-58 106,-87 178,-93 117,-11 215,43 270,148 30,59 33,70 29,134 -6,85 -30,136 -91,192 -65,60 -170,87 -247,64 z m 177,-56 c 129,-58 170,-233 82,-354 -69,-96 -201,-125 -307,-67 -86,48 -124,111 -124,206 0,118 73,211 189,239 49,12 96,5 160,-24 z"
       id="path2"
       style="fill:#682873;fill-opacity:1" /><path
       d="m 8662,6423 c 2,-98 6,-138 16,-141 9,-3 12,13 12,57 v 61 h 34 c 29,0 38,-7 75,-60 23,-33 49,-60 57,-60 21,0 17,12 -24,72 -38,53 -38,55 -18,64 33,14 50,60 36,93 -15,38 -48,51 -126,51 h -65 z m 139,97 c 12,-7 19,-21 19,-40 0,-36 -23,-50 -84,-50 h -46 v 50 50 h 46 c 25,0 54,-5 65,-10 z"
       id="path3"
       style="fill:#682873;fill-opacity:1" /><path
       d="m 5613,6483 c -20,-4 -23,-11 -23,-54 v -49 h -45 -45 v -55 -55 h 44 44 l 7,-42 c 8,-46 18,-58 52,-58 31,0 53,26 53,66 0,34 0,34 45,34 h 45 v 55 55 h -45 -45 v 43 c 0,62 -17,74 -87,60 z"
       id="path4"
       style="fill:#682873;fill-opacity:1" /><path
       d="m 4568,6301 c -78,-25 -136,-61 -185,-114 -86,-93 -113,-179 -122,-387 l -6,-155 -135,-2 -135,-1 -3,-66 -3,-65 138,-3 138,-3 3,-632 2,-633 h 74 c 56,0 75,4 80,15 3,8 5,292 6,632 v 618 l 195,3 195,2 v 68 67 l -196,-3 -196,-3 4,153 c 4,122 9,163 25,204 30,76 68,120 131,151 51,25 68,28 157,28 55,0 116,-4 135,-8 l 36,-8 17,54 c 9,29 17,61 17,69 0,39 -268,52 -372,19 z"
       id="path5"
       style="fill:#1b2033;fill-opacity:1" /><path
       d="m 7215,5673 c -177,-25 -329,-117 -432,-262 l -53,-73 v 156 156 h -80 -80 v -705 -705 h 79 79 l 4,418 4,417 26,77 c 67,200 219,327 432,360 84,13 82,10 88,113 3,55 -1,58 -67,48 z"
       id="path6"
       style="fill:#1b2033;fill-opacity:1" /><path
       d="m 1640,5654 c -138,-36 -247,-120 -296,-226 -25,-55 -29,-75 -28,-154 0,-82 3,-98 29,-150 36,-70 109,-133 192,-164 32,-12 114,-36 183,-52 194,-46 311,-85 361,-117 95,-63 122,-183 64,-289 -52,-96 -157,-150 -306,-159 -199,-12 -345,58 -449,216 l -15,23 -58,-28 c -31,-16 -57,-35 -57,-43 0,-25 61,-110 113,-157 106,-96 250,-144 427,-144 337,0 555,189 525,454 -23,209 -144,295 -540,386 -174,40 -256,77 -291,130 -69,105 -24,240 102,307 183,98 449,42 556,-116 l 17,-23 58,32 c 32,19 60,35 62,36 2,2 -6,19 -18,38 -54,86 -200,180 -319,205 -74,15 -246,13 -312,-5 z"
       id="path7"
       style="fill:#1b2033;fill-opacity:1" /><path
       d="m 2995,5654 c -101,-22 -219,-82 -293,-149 -35,-32 -62,-61 -60,-65 2,-4 22,-29 46,-54 l 43,-47 56,50 c 109,97 233,144 383,144 107,0 184,-17 257,-58 109,-60 153,-150 153,-311 v -92 l -302,-4 c -269,-4 -312,-7 -380,-26 -222,-61 -336,-188 -346,-383 -14,-272 180,-448 494,-449 204,0 406,96 512,245 l 21,30 1,-122 v -123 h 80 80 v 510 c 0,534 -2,569 -46,668 -44,101 -163,188 -309,228 -87,23 -301,28 -390,8 z m 583,-842 c -3,-121 -6,-133 -36,-195 -93,-189 -342,-307 -562,-267 -176,32 -274,135 -273,290 0,108 54,190 156,239 106,50 174,59 461,60 l 258,1 z"
       id="path8"
       style="fill:#1b2033;fill-opacity:1" /><path
       d="m 5440,5654 c -187,-40 -359,-183 -446,-369 -58,-125 -69,-182 -68,-355 1,-134 4,-166 25,-235 48,-157 141,-285 267,-368 128,-84 244,-117 417,-117 193,0 357,65 484,191 46,46 101,121 101,138 0,5 -26,24 -57,42 l -57,33 -20,-30 c -40,-57 -144,-153 -192,-177 -100,-50 -153,-62 -269,-62 -89,0 -123,5 -177,23 -139,48 -243,140 -304,267 -29,60 -64,192 -64,241 0,12 89,14 594,14 h 595 l 6,43 c 8,50 -9,193 -31,268 -66,225 -259,407 -480,454 -86,18 -238,18 -324,-1 z m 310,-141 c 126,-34 248,-130 303,-239 31,-62 57,-158 57,-213 v -41 h -515 -514 l 5,33 c 24,139 66,234 138,314 131,146 328,201 526,146 z"
       id="path9"
       style="fill:#1b2033;fill-opacity:1" /><path
       d="m 7380,5662 c 0,-1 40,-51 88,-110 202,-246 463,-573 468,-586 3,-8 -64,-100 -159,-217 -90,-112 -216,-269 -279,-349 l -116,-145 191,-5 c 106,-3 205,-3 222,0 24,5 57,41 183,200 84,107 161,206 171,219 l 18,24 82,-104 c 46,-57 124,-156 174,-220 l 92,-117 220,-3 c 121,-2 222,-3 224,-2 3,2 -84,111 -400,502 -68,84 -134,165 -145,180 l -22,26 96,120 c 52,66 179,225 283,353 l 189,232 h -123 c -67,0 -165,3 -217,6 l -96,7 -140,-179 c -77,-99 -156,-200 -175,-226 -19,-26 -36,-47 -39,-47 -3,0 -52,61 -110,136 -255,329 -225,297 -278,306 -42,6 -402,6 -402,-1 z"
       id="path10"
       style="fill:#682873;fill-opacity:1" /><path
       d="m 2475,3835 c -125,-44 -143,-227 -29,-292 67,-39 170,-24 202,27 22,36 2,42 -34,10 -81,-71 -214,-8 -214,102 0,12 9,41 20,64 37,76 123,94 188,39 19,-15 33,-21 42,-15 19,12 -39,65 -81,74 -42,8 -47,8 -94,-9 z"
       id="path11"
       style="fill:#682873;fill-opacity:1" /><path
       d="m 3474,3841 c -76,-19 -130,-98 -121,-178 5,-49 27,-85 71,-117 39,-30 143,-30 182,0 53,39 69,70 69,137 0,49 -5,69 -23,95 -38,52 -111,78 -178,63 z m 122,-47 c 27,-18 54,-72 54,-108 0,-76 -60,-136 -136,-136 -113,0 -172,132 -98,220 42,49 124,60 180,24 z"
       id="path12"
       style="fill:#682873;fill-opacity:1" /><path
       d="m 5157,3837 c -76,-24 -127,-106 -112,-180 24,-112 135,-166 241,-118 96,44 119,166 48,251 -15,17 -34,34 -43,39 -30,16 -96,20 -134,8 z m 129,-48 c 38,-23 54,-57 54,-115 0,-37 -6,-51 -34,-82 -33,-35 -38,-37 -96,-37 -58,0 -63,2 -96,37 -30,33 -34,44 -34,92 0,66 24,99 85,121 45,15 75,11 121,-16 z"
       id="path13"
       style="fill:#682873;fill-opacity:1" /><path
       d="m 7284,3839 c -102,-29 -143,-157 -81,-250 43,-65 141,-88 217,-51 34,17 35,18 38,85 l 3,67 h -56 c -42,0 -55,-3 -55,-15 0,-11 11,-15 40,-15 h 40 v -44 c 0,-40 -3,-45 -31,-55 -45,-15 -85,-14 -125,5 -80,38 -93,160 -24,218 53,44 115,42 182,-6 28,-20 33,0 8,27 -22,24 -78,46 -110,44 -8,0 -29,-5 -46,-10 z"
       id="path14"
       style="fill:#682873;fill-opacity:1" /><path
       d="m 1290,3680 c 0,-134 2,-160 15,-160 12,0 15,24 17,131 l 3,131 50,-123 c 31,-75 57,-125 66,-127 11,-2 29,29 63,110 26,62 52,117 57,123 5,5 9,-42 9,-119 0,-98 3,-127 13,-124 9,4 13,47 15,162 3,157 2,157 -19,154 -18,-2 -33,-28 -77,-131 -30,-71 -58,-125 -62,-120 -4,4 -31,63 -60,131 -41,94 -57,122 -71,122 -18,0 -19,-10 -19,-160 z"
       id="path15"
       style="fill:#682873;fill-opacity:1" /><path
       d="m 1670,3685 v -155 l 95,-1 c 52,-1 101,-2 108,-3 6,-1 12,6 12,14 0,12 -17,15 -90,15 h -90 v 60 60 l 83,3 c 45,2 82,7 82,12 0,5 -37,10 -82,12 l -83,3 -3,53 -3,52 h 90 c 74,0 91,3 91,15 0,12 -18,15 -105,15 h -105 z"
       id="path16"
       style="fill:#682873;fill-opacity:1" /><path
       d="m 1942,3683 3,-157 85,2 c 128,5 180,44 187,144 8,112 -59,168 -199,168 h -79 z m 209,91 c 38,-38 48,-94 26,-146 -20,-47 -58,-66 -138,-70 l -64,-3 -3,114 c -1,63 0,121 3,129 4,11 21,13 75,10 62,-3 74,-7 101,-34 z"
       id="path17"
       style="fill:#682873;fill-opacity:1" /><path
       d="m 2280,3680 c 0,-138 2,-159 15,-154 12,5 15,32 15,160 0,130 -2,154 -15,154 -13,0 -15,-24 -15,-160 z"
       id="path18"
       style="fill:#682873;fill-opacity:1" /><path
       d="m 2761,3732 c -24,-59 -55,-129 -68,-156 -28,-59 -27,-55 -5,-52 9,1 26,21 36,44 21,46 29,49 122,44 61,-4 62,-4 79,-43 12,-25 25,-39 37,-39 17,0 17,3 -5,48 -13,26 -43,95 -67,155 -59,144 -69,144 -129,-1 z m 104,-15 c 14,-37 25,-70 25,-72 0,-3 -29,-5 -65,-5 -36,0 -65,4 -65,9 0,21 64,151 71,144 4,-4 19,-38 34,-76 z"
       id="path19"
       style="fill:#682873;fill-opacity:1" /><path
       d="m 2960,3825 c 0,-12 13,-15 55,-15 h 54 l 3,-142 c 2,-102 6,-143 16,-146 9,-3 12,30 12,142 v 146 h 60 c 47,0 60,3 60,15 0,13 -21,15 -130,15 -109,0 -130,-2 -130,-15 z"
       id="path20"
       style="fill:#682873;fill-opacity:1" /><path
       d="m 3260,3680 c 0,-136 2,-160 15,-160 13,0 15,24 15,160 0,136 -2,160 -15,160 -13,0 -15,-24 -15,-160 z"
       id="path21"
       style="fill:#682873;fill-opacity:1" /><path
       d="m 3740,3679 c 0,-124 3,-160 13,-157 8,3 13,43 17,133 l 5,129 98,-127 c 55,-70 105,-127 113,-127 11,0 14,28 14,155 0,130 -2,155 -15,155 -12,0 -15,-23 -17,-126 l -3,-127 -99,127 c -55,69 -106,126 -113,126 -10,0 -13,-35 -13,-161 z"
       id="path22"
       style="fill:#682873;fill-opacity:1" /><path
       d="m 4195,3685 v -155 h 108 c 83,0 108,3 104,13 -3,8 -30,12 -90,12 h -87 v 63 62 h 80 c 47,0 80,4 80,10 0,6 -33,10 -79,10 h -79 l -4,55 -3,55 h 93 c 75,0 92,3 92,15 0,12 -19,15 -107,15 h -108 z"
       id="path23"
       style="fill:#682873;fill-opacity:1" /><path
       d="m 4470,3681 c 0,-136 2,-161 15,-161 12,0 15,15 15,75 v 75 h 44 c 43,0 44,0 82,-67 28,-49 46,-69 62,-71 22,-3 21,0 -17,61 -23,35 -41,67 -41,69 0,3 11,9 25,12 26,7 55,51 55,85 0,11 -11,33 -24,48 -23,26 -29,28 -120,31 l -96,4 z m 190,109 c 25,-25 25,-41 1,-71 -16,-19 -30,-24 -90,-27 l -71,-4 v 61 61 h 70 c 57,0 74,-4 90,-20 z"
       id="path24"
       style="fill:#682873;fill-opacity:1" /><path
       d="m 4770,3686 c 0,-132 2,-156 15,-156 12,0 15,15 15,71 v 70 l 43,-3 c 40,-3 44,-6 86,-70 28,-43 51,-68 62,-68 16,0 13,10 -22,67 -23,37 -37,69 -31,71 6,2 22,12 36,23 21,16 26,29 26,63 0,67 -22,80 -136,84 l -94,4 z m 185,108 c 10,-10 15,-29 13,-48 -4,-40 -35,-56 -110,-56 h -58 v 60 60 h 69 c 51,0 74,-4 86,-16 z"
       id="path25"
       style="fill:#682873;fill-opacity:1" /><path
       d="m 5430,3685 c 0,-148 1,-155 20,-155 18,0 20,6 16,65 l -3,65 33,6 c 44,8 56,-1 103,-74 22,-34 47,-62 56,-62 21,0 20,4 -25,70 -45,66 -46,70 -25,70 27,0 65,47 65,79 0,71 -34,91 -155,91 h -85 z m 192,108 c 35,-32 16,-86 -36,-99 -12,-3 -45,-4 -72,-2 l -49,3 -3,58 -3,57 h 72 c 53,0 77,-4 91,-17 z"
       id="path26"
       style="fill:#682873;fill-opacity:1" /><path
       d="m 5860,3686 c 0,-132 2,-156 15,-156 13,0 15,21 15,128 l 1,127 56,-127 c 31,-71 62,-128 69,-128 13,0 22,17 79,150 21,47 40,88 44,92 3,4 5,-49 3,-117 -3,-109 -2,-125 12,-125 14,0 16,20 16,155 0,146 -1,155 -19,155 -14,0 -27,-19 -51,-77 -53,-130 -80,-186 -86,-181 -3,4 -30,62 -59,130 -41,94 -59,124 -75,126 -19,3 -20,-1 -20,-152 z"
       id="path27"
       style="fill:#682873;fill-opacity:1" /><path
       d="m 6285,3694 c -33,-80 -61,-149 -63,-155 -2,-5 4,-9 13,-9 9,0 23,18 35,45 l 19,45 h 76 75 l 22,-45 c 13,-27 29,-45 39,-45 14,0 5,27 -47,145 -35,79 -64,149 -64,155 0,5 -10,10 -22,10 -20,0 -31,-20 -83,-146 z m 115,27 27,-69 -63,-4 c -35,-2 -64,-2 -64,-2 0,1 6,19 14,40 27,74 47,116 53,110 4,-3 19,-37 33,-75 z"
       id="path28"
       style="fill:#682873;fill-opacity:1" /><path
       d="m 6560,3685 c 0,-131 2,-155 15,-155 13,0 15,21 15,127 v 128 l 93,-127 c 79,-108 116,-146 129,-133 2,2 2,74 0,160 -2,116 -6,155 -15,152 -8,-2 -14,-44 -17,-126 l -5,-123 -70,93 c -86,114 -124,159 -136,159 -5,0 -9,-70 -9,-155 z"
       id="path29"
       style="fill:#682873;fill-opacity:1" /><path
       d="m 6927,3690 c -37,-83 -67,-156 -67,-161 0,-6 8,-9 17,-7 9,2 23,22 31,46 l 14,42 h 83 84 l 20,-45 c 12,-27 26,-45 37,-45 9,0 14,5 11,13 -3,6 -33,77 -66,157 -44,108 -64,146 -78,148 -16,2 -31,-24 -86,-148 z m 116,38 c 15,-40 27,-76 27,-80 0,-5 -30,-8 -66,-8 -50,0 -65,3 -61,13 21,56 63,147 67,147 3,0 18,-33 33,-72 z"
       id="path30"
       style="fill:#682873;fill-opacity:1" /><path
       d="m 7530,3685 c 0,-154 0,-155 23,-155 12,-1 59,-3 105,-6 70,-4 82,-3 82,10 0,13 -15,16 -90,16 h -90 v 63 62 h 77 c 52,0 78,4 80,13 4,9 -16,12 -76,12 h -81 v 55 55 h 90 c 73,0 90,3 90,15 0,12 -18,15 -105,15 h -105 z"
       id="path31"
       style="fill:#682873;fill-opacity:1" /><path
       d="m 7800,3681 c 0,-135 2,-161 15,-161 12,0 15,24 17,131 l 3,130 56,-128 c 31,-70 62,-128 69,-128 6,0 24,32 39,70 16,39 40,95 54,125 l 26,55 v -127 c 1,-107 3,-128 16,-128 13,0 15,24 15,160 0,147 -1,160 -18,160 -13,0 -31,-32 -72,-130 -30,-71 -58,-130 -61,-130 -4,0 -31,57 -62,128 -43,97 -61,128 -76,130 -20,3 -21,-1 -21,-157 z"
       id="path32"
       style="fill:#682873;fill-opacity:1" /><path
       d="m 8190,3682 v -158 l 105,-3 c 90,-2 105,0 105,13 0,13 -15,16 -90,16 h -90 v 66 c 0,36 4,63 9,60 14,-9 161,6 161,15 0,5 -38,9 -85,9 h -85 v 55 55 h 89 c 70,0 90,3 95,15 5,13 -11,15 -104,15 h -110 z"
       id="path33"
       style="fill:#682873;fill-opacity:1" /><path
       d="m 8460,3680 c 0,-134 2,-160 15,-160 12,0 15,24 17,132 l 3,132 95,-127 c 57,-75 102,-126 113,-126 15,-1 17,13 17,154 0,131 -2,155 -15,155 -13,0 -15,-21 -15,-125 0,-69 -3,-125 -7,-125 -5,1 -50,57 -101,125 -51,69 -99,125 -107,125 -13,0 -15,-25 -15,-160 z"
       id="path34"
       style="fill:#682873;fill-opacity:1" /><path
       d="m 8760,3825 c 0,-12 13,-15 60,-15 h 60 v -145 c 0,-122 2,-145 15,-145 13,0 15,23 15,145 v 145 h 55 c 42,0 55,3 55,15 0,13 -21,15 -130,15 -109,0 -130,-2 -130,-15 z"
       id="path35"
       style="fill:#662a70;fill-opacity:1" /></g></svg>
